<svg xmlns="http://www.w3.org/2000/svg" width="24.131" height="24.13" viewBox="0 0 24.131 24.13"><defs><style>.a{fill:#fff;}</style></defs><g transform="translate(0 0)"><path class="a" d="M12.065,24.13a12.064,12.064,0,0,1-8.531-20.6A12.065,12.065,0,1,1,20.6,20.6,11.986,11.986,0,0,1,12.065,24.13Zm.256-19.483A7.222,7.222,0,0,0,6.063,15.474L5.039,19.215l3.828-1A7.222,7.222,0,1,0,12.321,4.647Zm0,13.125h0a6.24,6.24,0,0,1-3.1-.823l-.222-.128-2.308.586L7.3,15.228,7.152,15a5.761,5.761,0,0,1-.932-3.142,6.014,6.014,0,0,1,6.1-5.9A6.154,6.154,0,0,1,16.63,7.69a5.775,5.775,0,0,1,1.784,4.177A6.012,6.012,0,0,1,12.317,17.771Zm-2.6-9.19a.678.678,0,0,0-.489.222L9.2,8.84a1.93,1.93,0,0,0-.607,1.444,3.38,3.38,0,0,0,.749,1.836l.031.043a7.847,7.847,0,0,0,3.1,2.637,10.786,10.786,0,0,0,1.045.374,2.38,2.38,0,0,0,.71.1,3.071,3.071,0,0,0,.445-.034,1.882,1.882,0,0,0,1.237-.844,1.442,1.442,0,0,0,.107-.844.585.585,0,0,0-.247-.158l-.1-.049c-.181-.088-1.084-.518-1.253-.578a.623.623,0,0,0-.2-.046.254.254,0,0,0-.216.135c-.123.178-.473.578-.581.7a.257.257,0,0,1-.2.1.467.467,0,0,1-.2-.057c-.03-.015-.071-.032-.122-.053a4.8,4.8,0,0,1-1.352-.828,5.355,5.355,0,0,1-1.02-1.23.242.242,0,0,1,.056-.332l.025-.029a4.784,4.784,0,0,0,.458-.608.319.319,0,0,0-.015-.311c-.032-.062-.216-.5-.378-.877l0-.008-.184-.432c-.121-.282-.242-.305-.355-.305h-.057C9.962,8.582,9.838,8.582,9.72,8.582Z" transform="translate(0)"/></g></svg>